<?xml version="1.0" encoding="UTF-8"?>
<svg width="196px" height="67px" viewBox="0 0 196 67" version="1.1" xmlns="http://www.w3.org/2000/svg" xmlns:xlink="http://www.w3.org/1999/xlink">
    <!-- Generator: Sketch 62 (91390) - https://sketch.com -->
    <title>Group</title>
    <desc>Created with Sketch.</desc>
    <g id="Symbols" stroke="none" stroke-width="1" fill="none" fill-rule="evenodd">
        <g id="sitcky-nav" transform="translate(-273.000000, -32.000000)" fill="#FFFFFF">
            <g id="Group" transform="translate(273.000000, 32.000000)">
                <text id="catalyse-the-future" font-family="HelveticaNeue-Medium, Helvetica Neue" font-size="16" font-weight="400" line-spacing="20">
                    <tspan x="59" y="45">catalyse the future </tspan>
                    <tspan x="59" y="65">of investment</tspan>
                </text>
                <g id="Group-Copy">
                    <path d="M9.61562667,39.2727273 L9.61562667,14.7445805 L0,14.7445805 L0,8.96400819 C1.34698065,9.00029674 2.64940053,8.90212324 3.90627666,8.66689565 C5.16249749,8.43296408 6.29126138,8.01856175 7.29289599,7.42466067 C8.29485824,6.83043559 9.14118542,6.04699162 9.83384344,5.07465277 C10.5248632,4.1019899 10.9812835,2.89571947 11.1995003,1.45454545 L17.3731343,1.45454545 L17.3731343,39.2727273 L9.61562667,39.2727273 Z" id="Fill-1"></path>
                    <path d="M63.984282,14.8098187 L69.246767,7.73009056 L69.246767,14.8098187 L63.984282,14.8098187 Z M74.3499835,14.8098187 L74.3499835,0.727272727 L69.6649712,0.727272727 L59.358209,14.5678164 L59.358209,19.3113934 L69.246767,19.3113934 L69.246767,24.7272727 L74.3499835,24.7272727 L74.3499835,19.3113934 L77.4552239,19.3113934 L77.4552239,14.8098187 L74.3499835,14.8098187 Z" id="Fill-4"></path>
                    <path d="M97,16.3362187 C97,17.5584624 96.7546921,18.6615486 96.2762455,19.6221568 C95.7920346,20.5773342 95.1419365,21.3903531 94.338441,22.0327818 C93.5403896,22.6752105 92.6116781,23.1697304 91.5686391,23.5051606 C90.5313644,23.83516 89.4370861,24 88.3143059,24 C87.0147503,24 85.8179935,23.8121591 84.7464526,23.4371162 C83.6694675,23.0617538 82.7346714,22.4991895 81.9766507,21.7768965 C81.2189502,21.0549229 80.6258558,20.1566089 80.2156215,19.1164558 C79.8053873,18.0759833 79.6058744,16.8649206 79.6286118,15.5231998 L79.634056,15.244633 L84.5469398,15.244633 L84.5584686,15.5174496 C84.5815263,16.0918338 84.6724759,16.6489674 84.8377225,17.1661688 C84.9975249,17.6779395 85.2309838,18.1270965 85.527531,18.4909584 C85.8237579,18.8548203 86.1997259,19.1506378 86.6445467,19.3662715 C87.0890473,19.5825441 87.6248177,19.6905206 88.2457734,19.6905206 C89.2206002,19.6905206 90.0128872,19.4062036 90.6738736,18.8148881 C91.3290955,18.2293228 91.6483801,17.4504859 91.6483801,16.4326948 C91.6483801,15.6369266 91.5001066,15.0341106 91.2038796,14.630636 C90.8958036,14.2210917 90.5201558,13.9313439 90.0525976,13.7495727 C89.562302,13.5559816 89.0210874,13.4425742 88.4452863,13.4141425 C87.8355391,13.3799606 87.2485294,13.3627099 86.695786,13.3627099 L86.4107676,13.3627099 L86.4107676,9.54806994 L86.7242878,9.57650164 C87.2030546,9.6164338 87.7160876,9.6164338 88.2573022,9.57650164 L88.2573022,9.57075141 C88.7873083,9.53081924 89.2830481,9.41741189 89.7390774,9.22382075 C90.1723694,9.04204953 90.5368086,8.76923297 90.8218269,8.42230231 C91.0898723,8.08687212 91.226617,7.62653411 91.226617,7.05214983 C91.226617,6.17108652 90.9473631,5.51140714 90.3661178,5.05106913 C89.7733437,4.57923066 89.0835352,4.34027657 88.3143059,4.34027657 C87.2315564,4.34027657 86.4450339,4.67570677 85.903499,5.37499886 C85.35652,6.08004118 85.0884746,6.9895362 85.111212,8.08112189 L85.111212,8.37118914 L80.1643823,8.37118914 L80.1759111,8.07569111 C80.221386,6.88730985 80.4378718,5.79029339 80.8253687,4.80668427 C81.2189502,3.81732493 81.7713734,2.95894309 82.4727107,2.2424003 C83.1734075,1.5319272 84.0284626,0.974793623 85.0087335,0.582500024 C86.7470252,-0.105611061 88.9583193,-0.213587638 91.0786637,0.417340585 C92.0073752,0.690476601 92.8566658,1.1112019 93.6034779,1.66833548 C94.355414,2.22546906 94.9709255,2.91326069 95.4442481,3.72052936 C95.9169303,4.53354826 96.1564738,5.48297544 96.1564738,6.53494842 C96.1564738,7.68339751 95.8772198,8.70661933 95.3244764,9.58768264 C94.8911844,10.2757937 94.2872017,10.7987454 93.5237368,11.1514263 C94.4863943,11.4980375 95.2729169,12.0609213 95.8717757,12.8397582 C96.6182676,13.8118669 97,14.9887477 97,16.3362187" id="Fill-6"></path>
                    <path d="M48.5,20.2282042 C48.5,24.010908 48.1344449,27.1705592 47.4033346,29.7074817 C46.6722243,32.2502363 45.6728049,34.2745903 44.4047554,35.7850798 C43.1424829,37.3017253 41.6802623,38.3796744 40.0180937,39.031563 C38.3617021,39.6772957 36.5852774,40 34.6949176,40 C32.8385779,40 31.0794842,39.6772957 29.4230926,39.031563 C27.7667009,38.3796744 26.3102574,37.3017253 25.0592179,35.7850798 C23.8139554,34.2745903 22.820313,32.2502363 22.0892027,29.7074817 C21.3580925,27.1705592 20.9925373,24.010908 20.9925373,20.2282042 C20.9925373,16.5553366 21.3580925,13.4646975 22.0892027,10.962119 C22.820313,8.45954046 23.8139554,6.45300645 25.0592179,4.93668494 C26.3102574,3.42587143 27.7667009,2.34759835 29.4230926,1.6960337 C31.0794842,1.05030105 32.8385779,0.727272727 34.6949176,0.727272727 C36.5852774,0.727272727 38.3617021,1.05030105 40.0180937,1.6960337 C41.6802623,2.34759835 43.1424829,3.42587143 44.4047554,4.93668494 C45.6728049,6.45300645 46.6722243,8.45954046 47.4033346,10.962119 C47.7290927,12.0750601 47.9803918,13.3146853 48.1630089,14.6583147 L40.6063839,14.6583147 C40.4866719,13.8162378 40.3265208,12.980317 40.1268937,12.1499041 C39.8926046,11.1986392 39.5440595,10.3393903 39.0815793,9.58382158 C38.6187782,8.82857683 38.0304879,8.21751222 37.3167086,7.75030375 C36.6026084,7.28341928 35.728678,7.04689905 34.6949176,7.04689905 C33.6611572,7.04689905 32.7930039,7.28341928 32.1016906,7.75030375 C31.4049214,8.21751222 30.8339621,8.82857683 30.388171,9.58382158 C29.9427008,10.3393903 29.5944766,11.1986392 29.3431775,12.1499041 C29.0915575,13.1070011 28.9147174,14.0702541 28.8062383,15.044523 C28.7032153,16.013284 28.6406313,16.958717 28.6233003,17.8814699 C28.6005133,18.7980668 28.5947363,19.5824716 28.5947363,20.2282042 C28.5947363,21.3064773 28.6290773,22.6154386 28.7032153,24.1434241 C28.7718973,25.6772417 28.9946324,27.1533872 29.3714206,28.5776926 C29.7427527,29.995842 30.3425969,31.2124632 31.1651762,32.2217242 C31.9819786,33.2306612 33.158559,33.7322137 34.6949176,33.7322137 C36.2656172,33.7322137 37.4707617,33.2306612 38.3045741,32.2217242 C39.1444843,31.2124632 39.7497846,29.995842 40.1268937,28.5776926 C40.4979049,27.1533872 40.726417,25.6772417 40.795099,24.1434241 C40.869237,22.6154386 40.903578,21.3064773 40.903578,20.2282042 C40.903578,19.8821719 40.897801,19.4901315 40.892024,19.0634231 L48.488767,19.0634231 C48.494223,19.4441234 48.5,19.8303318 48.5,20.2282042" id="Fill-9"></path>
                    <path d="M56.4626866,13.8181818 L56.4626866,18.1818182 L48.8183819,18.1818182 C48.7847854,16.6112043 48.6786581,15.1545194 48.5,13.8181818 L56.4626866,13.8181818 Z" id="Fill-11"></path>
                </g>
            </g>
        </g>
    </g>
</svg>