<?xml version="1.0" encoding="UTF-8"?>
<svg width="28px" height="22px" viewBox="0 0 28 22" version="1.1" xmlns="http://www.w3.org/2000/svg" xmlns:xlink="http://www.w3.org/1999/xlink">
    <!-- Generator: Sketch 62 (91390) - https://sketch.com -->
    <title>“</title>
    <desc>Created with Sketch.</desc>
    <g id="Desktop" stroke="none" stroke-width="1" fill="none" fill-rule="evenodd">
        <g id="Reech-10-43-opt1" transform="translate(-660.000000, -1555.000000)" fill="#FFAC42" fill-rule="nonzero">
            <path d="M665.9,1577 C667.5,1577 668.85,1576.5 669.95,1575.5 C671.05,1574.5 671.6,1573.1 671.6,1571.3 C671.6,1568.23333 669.966667,1566.43333 666.7,1565.9 C665.566667,1565.7 665,1565 665,1563.8 C665,1561 667.1,1559.03333 671.3,1557.9 L671.3,1557.9 L670.9,1555.3 C667.166667,1555.96667 664.416667,1557.61667 662.65,1560.25 C660.883333,1562.88333 660,1565.9 660,1569.3 C660,1571.9 660.55,1573.83333 661.65,1575.1 C662.75,1576.36667 664.166667,1577 665.9,1577 Z M681.5,1577 C683.1,1577 684.45,1576.5 685.55,1575.5 C686.65,1574.5 687.2,1573.1 687.2,1571.3 C687.2,1568.23333 685.566667,1566.43333 682.3,1565.9 C681.166667,1565.7 680.6,1565 680.6,1563.8 C680.6,1561 682.7,1559.03333 686.9,1557.9 L686.9,1557.9 L686.5,1555.3 C682.766667,1555.96667 680.016667,1557.61667 678.25,1560.25 C676.483333,1562.88333 675.6,1565.9 675.6,1569.3 C675.6,1571.9 676.15,1573.83333 677.25,1575.1 C678.35,1576.36667 679.766667,1577 681.5,1577 Z" id="“"></path>
        </g>
    </g>
</svg>